<?xml version="1.0" encoding="UTF-8" standalone="no"?>
<!-- Created with Inkscape (http://www.inkscape.org/) -->

<svg
   width="210mm"
   height="297mm"
   viewBox="0 0 210 297"
   version="1.1"
   id="svg5"
   inkscape:version="1.1.1 (3bf5ae0d25, 2021-09-20)"
   sodipodi:docname="wheels.svg"
   xmlns:inkscape="http://www.inkscape.org/namespaces/inkscape"
   xmlns:sodipodi="http://sodipodi.sourceforge.net/DTD/sodipodi-0.dtd"
   xmlns="http://www.w3.org/2000/svg"
   xmlns:svg="http://www.w3.org/2000/svg">
  <sodipodi:namedview
     id="namedview7"
     pagecolor="#ffffff"
     bordercolor="#666666"
     borderopacity="1.0"
     inkscape:pageshadow="2"
     inkscape:pageopacity="0.0"
     inkscape:pagecheckerboard="0"
     inkscape:document-units="mm"
     showgrid="true"
     inkscape:zoom="4.2532752"
     inkscape:cx="74.883469"
     inkscape:cy="31.152463"
     inkscape:window-width="1920"
     inkscape:window-height="1001"
     inkscape:window-x="-9"
     inkscape:window-y="-9"
     inkscape:window-maximized="1"
     inkscape:current-layer="layer1">
    <inkscape:grid
       type="xygrid"
       id="grid824"
       units="mm"
       spacingx="1"
       spacingy="1" />
  </sodipodi:namedview>
  <defs
     id="defs2" />
  <g
     inkscape:label="Calque 1"
     inkscape:groupmode="layer"
     id="layer1">
    <circle
       style="fill:none;stroke:#ff0000;stroke-width:0.1;stroke-miterlimit:4;stroke-dasharray:none;stroke-dashoffset:0;stop-color:#000000"
       id="path1364"
       cx="20.064356"
       cy="20"
       r="12.953736" />
    <path
       id="path1468"
       style="fill:none;stroke:#ff0000;stroke-width:0.0990001;stroke-miterlimit:4;stroke-dasharray:none;stroke-dashoffset:0;stop-color:#000000"
       d="m 18.208025,18.248548 a 2.5527273,2.5527273 0 0 0 -0.687074,1.541953 v 0.418486 a 2.5527273,2.5527273 0 0 0 0.687586,1.542464 h 3.711634 a 2.5527273,2.5527273 0 0 0 0.687586,-1.542976 v -0.423602 a 2.5527273,2.5527273 0 0 0 -0.686563,-1.536325 z" />
    <rect
       style="fill:none;stroke:#ff0000;stroke-width:0.1;stroke-miterlimit:4;stroke-dasharray:none;stroke-dashoffset:0;stop-color:#000000"
       id="rect1695"
       width="2"
       height="6"
       x="19"
       y="25" />
    <rect
       style="fill:none;stroke:#ff0000;stroke-width:0.1;stroke-miterlimit:4;stroke-dasharray:none;stroke-dashoffset:0;stop-color:#000000"
       id="rect1695-1"
       width="2"
       height="6"
       x="19"
       y="9" />
    <path
       id="path1468-8-8"
       style="fill:none;stroke:#ff0000;stroke-width:0.099;stroke-miterlimit:4;stroke-dasharray:none;stroke-dashoffset:0;stop-color:#000000"
       d="m 53.208023,18.248548 a 2.5527273,2.5527273 0 0 0 -0.68707,1.541953 v 0.418486 a 2.5527273,2.5527273 0 0 0 0.687585,1.542464 h 3.711628 a 2.5527273,2.5527273 0 0 0 0.687585,-1.542976 v -0.423602 a 2.5527273,2.5527273 0 0 0 -0.686555,-1.536325 z" />
    <path
       id="path1468-8-89"
       style="fill:none;stroke:#ff0000;stroke-width:0.099;stroke-miterlimit:4;stroke-dasharray:none;stroke-dashoffset:0;stop-color:#000000"
       d="m 88.208031,18.248549 a 2.5527273,2.5527273 0 0 0 -0.68707,1.541953 v 0.418486 a 2.5527273,2.5527273 0 0 0 0.687575,1.542464 h 3.711638 a 2.5527273,2.5527273 0 0 0 0.687575,-1.542976 v -0.423602 a 2.5527273,2.5527273 0 0 0 -0.686555,-1.536325 z" />
    <g
       inkscape:label="Rendered Gears"
       transform="translate(55.064352,20)"
       id="g2909"
       style="stroke:#ff0000;stroke-width:0.1;stroke-miterlimit:4;stroke-dasharray:none;stroke-opacity:1">
      <path
         style="fill:none;stroke:#ff0000;stroke-width:0.1;stroke-miterlimit:4;stroke-dasharray:none;stroke-opacity:1"
         d="m 8.67864,-0.98558 0.64165,-0.07287 0.61384,0.08002 1.28817,0.5632 V 0.41523 L 9.93413,0.97843 9.32029,1.05845 8.67864,0.98558 8.39518,2.41062 9.01587,2.58884 9.55237,2.89768 10.5269,3.91097 10.2091,4.67821 8.80351,4.70558 8.20578,4.5446 7.64085,4.23173 6.83363,5.43982 7.33887,5.84201 7.71634,6.33264 8.22897,7.64175 7.64175,8.22897 6.33264,7.71634 5.84201,7.33887 5.43982,6.83363 4.23173,7.64085 4.5446,8.20578 4.70558,8.80351 4.67821,10.2091 3.91097,10.5269 2.89768,9.55237 2.58884,9.01587 2.41062,8.39518 0.98558,8.67864 1.05845,9.32029 0.97843,9.93413 0.41523,11.2223 H -0.41523 L -0.97843,9.93413 -1.05845,9.32029 -0.98558,8.67864 -2.41062,8.39518 -2.58884,9.01587 -2.89768,9.55237 -3.91097,10.5269 -4.67821,10.2091 -4.70558,8.80351 -4.5446,8.20578 -4.23173,7.64085 -5.43982,6.83363 -5.84201,7.33887 -6.33264,7.71634 -7.64175,8.22897 -8.22897,7.64175 -7.71634,6.33264 -7.33887,5.84201 -6.83363,5.43982 -7.64085,4.23173 -8.20578,4.5446 -8.80351,4.70558 -10.2091,4.67821 -10.5269,3.91097 -9.55237,2.89768 -9.01587,2.58884 -8.39518,2.41062 -8.67864,0.98558 -9.32029,1.05845 -9.93413,0.97843 -11.2223,0.41523 v -0.83046 l 1.28817,-0.5632 0.61384,-0.08002 0.64165,0.07287 0.28346,-1.42504 -0.62069,-0.17822 -0.5365,-0.30884 -0.97453,-1.01329 0.3178,-0.76724 1.40559,-0.02737 0.59773,0.16098 0.56493,0.31287 0.80722,-1.20809 -0.50524,-0.40219 -0.37747,-0.49063 -0.51263,-1.30911 0.58722,-0.58722 1.30911,0.51263 0.49063,0.37747 0.40219,0.50524 1.20809,-0.80722 -0.31287,-0.56493 -0.16098,-0.59773 0.02737,-1.40559 0.76724,-0.3178 1.01329,0.97453 0.30884,0.5365 0.17822,0.62069 1.42504,-0.28346 -0.07287,-0.64165 0.08002,-0.61384 0.5632,-1.28817 h 0.83046 l 0.5632,1.28817 0.08002,0.61384 -0.07287,0.64165 1.42504,0.28346 0.17822,-0.62069 0.30884,-0.5365 1.01329,-0.97453 0.76724,0.3178 0.02737,1.40559 -0.16098,0.59773 -0.31287,0.56493 1.20809,0.80722 0.40219,-0.50524 0.49063,-0.37747 1.30911,-0.51263 0.58722,0.58722 -0.51263,1.30911 -0.37747,0.49063 -0.50524,0.40219 0.80722,1.20809 0.56493,-0.31287 0.59773,-0.16098 1.40559,0.02737 0.3178,0.76724 -0.97453,1.01329 -0.5365,0.30884 -0.62069,0.17822 z"
         id="path2907" />
    </g>
    <g
       inkscape:label="Rendered Gears"
       transform="translate(90.064355,20.000001)"
       id="g3048"
       style="stroke:#ff0000;stroke-opacity:1">
      <path
         style="fill:none;stroke:#ff0000;stroke-width:0.1;stroke-miterlimit:4;stroke-dasharray:none;stroke-opacity:1"
         d="M 6.17268,-0.90643 6.9605,-1.02212 7.4226,-0.9772 8.72583,-0.38724 V 0.38724 L 7.4226,0.9772 6.9605,1.02212 6.17268,0.90643 5.79891,2.30134 6.53903,2.59507 6.91676,2.86502 7.75042,4.02755 7.36317,4.69828 5.93956,4.55758 5.51691,4.36544 4.89248,3.87133 3.87133,4.89248 4.36544,5.51691 4.55758,5.93956 4.69828,7.36317 4.02755,7.75042 2.86502,6.91676 2.59507,6.53903 2.30134,5.79891 0.90643,6.17268 1.02212,6.9605 0.9772,7.4226 0.38724,8.72583 H -0.38724 L -0.9772,7.4226 -1.02212,6.9605 -0.90643,6.17268 -2.30134,5.79891 -2.59507,6.53903 -2.86502,6.91676 -4.02755,7.75042 -4.69828,7.36317 -4.55758,5.93956 -4.36544,5.51691 -3.87133,4.89248 -4.89248,3.87133 -5.51691,4.36544 -5.93956,4.55758 -7.36317,4.69828 -7.75042,4.02755 -6.91676,2.86502 -6.53903,2.59507 -5.79891,2.30134 -6.17268,0.90643 -6.9605,1.02212 -7.4226,0.9772 -8.72583,0.38724 v -0.77448 l 1.30323,-0.58996 0.4621,-0.04492 0.78782,0.11569 0.37377,-1.39491 -0.74012,-0.29373 -0.37773,-0.26995 -0.83366,-1.16253 0.38725,-0.67073 1.42361,0.1407 0.42265,0.19214 0.62443,0.49411 1.02115,-1.02115 -0.49411,-0.62443 -0.19214,-0.42265 -0.1407,-1.42361 0.67073,-0.38725 1.16253,0.83366 0.26995,0.37773 0.29373,0.74012 1.39491,-0.37377 -0.11569,-0.78782 0.04492,-0.4621 0.58996,-1.30323 h 0.77448 l 0.58996,1.30323 0.04492,0.4621 -0.11569,0.78782 1.39491,0.37377 0.29373,-0.74012 0.26995,-0.37773 1.16253,-0.83366 0.67073,0.38725 -0.1407,1.42361 -0.19214,0.42265 -0.49411,0.62443 1.02115,1.02115 0.62443,-0.49411 0.42265,-0.19214 1.42361,-0.1407 0.38725,0.67073 -0.83366,1.16253 -0.37773,0.26995 -0.74012,0.29373 z"
         id="path3046" />
    </g>
  </g>
  <g
     inkscape:groupmode="layer"
     id="layer2"
     inkscape:label="axes">
    <path
       style="fill:none;stroke:#000000;stroke-width:0.1;stroke-linecap:butt;stroke-linejoin:miter;stroke-miterlimit:4;stroke-dasharray:0.1, 0.2;stroke-dashoffset:0;stroke-opacity:1"
       d="M 5,20 H 35.128709"
       id="path1258" />
    <path
       style="fill:none;stroke:#000000;stroke-width:0.1;stroke-linecap:butt;stroke-linejoin:miter;stroke-miterlimit:4;stroke-dasharray:0.1, 0.2;stroke-dashoffset:0;stroke-opacity:1"
       d="M 20.064355,5 V 35"
       id="path1260" />
    <path
       style="fill:none;stroke:#000000;stroke-width:0.1;stroke-linecap:butt;stroke-linejoin:miter;stroke-miterlimit:4;stroke-dasharray:0.1, 0.2;stroke-dashoffset:0;stroke-opacity:1"
       d="M 40,20 H 70.128703"
       id="path1258-1-3" />
    <path
       style="fill:none;stroke:#000000;stroke-width:0.1;stroke-linecap:butt;stroke-linejoin:miter;stroke-miterlimit:4;stroke-dasharray:0.1, 0.2;stroke-dashoffset:0;stroke-opacity:1"
       d="M 55.064352,5 V 34.999999"
       id="path1260-1-6" />
    <path
       style="fill:none;stroke:#000000;stroke-width:0.1;stroke-linecap:butt;stroke-linejoin:miter;stroke-miterlimit:4;stroke-dasharray:0.1, 0.2;stroke-dashoffset:0;stroke-opacity:1"
       d="m 75,20 h 30.12871"
       id="path1258-1-4" />
    <path
       style="fill:none;stroke:#000000;stroke-width:0.1;stroke-linecap:butt;stroke-linejoin:miter;stroke-miterlimit:4;stroke-dasharray:0.1, 0.2;stroke-dashoffset:0;stroke-opacity:1"
       d="M 90.064355,5.0000005 V 35"
       id="path1260-1-7" />
  </g>
</svg>
